# xmcd
#
# Track frame offsets:
#	150
#	20494
#	40277
#	59877
#	90479
#	103554
#	113422
#	132237
#	150567
#	163994
#
# Disc length: 2548 seconds
# Revision: 0
# Processed by: cddbd v1.5.2PL0 Copyright (c) Steve Scherf et al.
# Submitted via: dBpowerAMP V12.0
#
DISCID=7e09f20a
DTITLE=Various Artist - American Folk Blues Festival '64
DYEAR=1964
DGENRE=Blues
TTITLE0=Sonny Boy Williamson - I'm Trying To Make London My Home
TTITLE1=Sonny Boy Williamson - Dissatisfied
TTITLE2=Sunnyland Slim - Everytime I Get To Drinkin'
TTITLE3=Sam "Lightnin'" Hopkins - Ain't It A Pity
TTITLE4=Sam "Lightnin'" Hopkins - Baby Please Don't Go
TTITLE5=Sleepy John Estes and Hammie Nixon - I'm A Tearing Little Daddy
TTITLE6=John Henry Barbee - Cotton Pickin' Blues
TTITLE7=Hubert Sumlin - No Title Boogie
TTITLE8=Sugar Pie Desanto - Slip In Mules
TTITLE9=Howlin' Wolf - Dust My Broom
EXTD=
EXTT0=
EXTT1=
EXTT2=
EXTT3=
EXTT4=
EXTT5=
EXTT6=
EXTT7=
EXTT8=
EXTT9=
PLAYORDER=
